<?xml version="1.0" encoding="UTF-8"?>
<svg id="Layer_1" data-name="Layer 1" xmlns="http://www.w3.org/2000/svg" width="147.24mm" height="178.27mm" viewBox="0 0 417.36 505.34">
  <defs>
    <style>
      .cls-1 {
        fill: none;
        stroke: #231f20;
        stroke-miterlimit: 10;
        stroke-width: .25px;
      }
    </style>
  </defs>
  <path class="cls-1" d="M255.94.39c8.42.63,15.89,7.14,18.08,15.25-.11,1.09.51,2.12.33,3.24-.2,1.37.38,2.49.33,3.8.15.97-.39,1.74-.33,2.68.05,1.35.01,2.59-.33,3.85.08.92-.49,1.79-.33,2.72.13,1.35-.19,2.55-.33,3.85.08,2.61-.36,5.09-.43,7.7-.55,2.02.11,4.56-1.91,6-3.32,2.1-7.05.02-8.75,5.17-1.17,2.29-.23,5.71,1.88,7.18,1.88,2,6.28,1.08,6.54,4.52.06,3-.05,5.97-.67,8.82,0,2.81.12,5.64-.33,8.39-.02,10.1-.18,20.27.67,30.18,2.37,11.32-6.58,4.79-8.03,13.63-.23,2.59,1.1,5.16,3.34,6.4,1.41.69,3.21.69,4.26,2,1.68,1.06,1.21,5.62.76,7.33-.05,1.66.11,3.39-.08,5.04-.69,1.27.2,3.01-.58,4.3-.03,1.67.15,3.39-.34,4.93.14,1.71-.17,3.33-.33,4.97.18,2.26-.4,4.42-.33,6.66.01,3.94-.05,7.88,0,11.81-2.22,6.99-8.36.49-10.37,9.95.2,3.37,2.88,6.98,6.5,6.57,1.67.3,2.9-1.37,4.49-1.36.37-.29,1.04-.46,1.44-.11.47.16,1.15-.01,1.49.45,4.54,2.31,1.49,6.39,4.01,9.6,2.79,4.73,10.51,2.52,10.84-2.83.66-1.12-.31-2.42-.37-3.59-.82-1.63-2.29-2.73-3.22-4.28-.52-3.12.93-5.99,2.26-8.65,2.42-4.11,3.85-8.48,5.35-12.88.17-1.57.75-3.2,1-4.78.04-2.04,1.78-3.64,3.54-4.43,3.13-.12,5.63-2.69,6.16-5.7.44-5.78-5.3-5.63-2.62-11.49,4.2-10.55,9.34-20.79,11.69-31.8,1.34-3.47.62-7.3,5.58-7.92,4.4,1.82,8.92-2.33,8.43-6.81-1.41-5.97-4.86-3.94-6.69-7.8-.2-2.02.54-3.95,1.34-5.64.68-3.05,2.06-5.95,3.03-9.09,2.78-6.25,3.47-13.38,7.34-19.24,5.36-8.3,16.01-13.58,25.48-9.7,2.55.81,4.73,2.44,6.52,4.46,1.71,1.47,2.86,3.29,4.04,5.11,1.9,3.77,2.32,7.85,2.09,12.12.06,2.2-1.09,4.17-1.34,6.24-.51.69-.62,1.63-.78,2.49-.41.77-.82,1.58-.89,2.44-1.42,3.06-1.71,6.42-3.01,9.53-.16,1.89-1.14,3.63-1.67,5.5-.2,1.37-.61,2.76-1,4.13-.18.96-.33,2.13-.96,2.98-2.01,4.42-8.23-.26-10.92,5.3-1.54,2.89-.72,6.82,2.12,8.57,4.65,1.79,3.02,6.62,1.73,10.23-2.61,8.15-4.19,16.46-5.68,24.78-.68.94.06,2.26-.67,3.1-.07.69.18,1.56-.23,2.15-.15.66-.06,1.46-.43,2.07-.08.68.25,1.61-.33,2.11.15,1.63-1.37,3.09-2.71,3.78-1.4.39-2.84.34-4.22.82-3.44,1.45-4.81,5.89-3.05,9.16,1.01,2.58,5.2,2.81,4.96,5.93.18,2.87-1.83,5.37-2.88,7.94-.4,1.51-1.01,3-1.81,4.31-.27,2.43-1.77,4.66-2.52,6.93-.49,1.73-1.37,3.27-1.82,4.98-.33,2.06-1.05,4.07-2,5.92-.72,2.7-1.03,6.48-4.07,7.63-.55-.11-1.01.3-1.53.34-.82-.36-1.67-.38-2.43-.85-1.62-.25-3.89-.55-5.26.53-4.67,2.65-3.6,10.4,1.62,11.71,2.05.26,4.59.24,5.52,2.49.34,1.03.18,2.21.47,3.24,1.17,2.7-.77,5.84.32,8.6,1.94,5.67,10.17,5.36,11.54-.57.61-1.78.06-3.48-.66-5.14-1.25-1.21-1.25-2.94-1.18-4.57.84-3.38,2.86-6.59,4.16-9.9,1.04-3.46,2.15-6.81,3.87-10.05,2.53-8.32,6.54-3.12,10.98-6.76,2.08-1.86,2.58-4.97,1.65-7.5-1.26-1.49-1.43-3.26-1.22-5.16,2.03-3.45,4.66-6.47,6.65-9.95,1.14-2.64,1.64-6.15,4.56-7.57,1.66-.75,3.58-.44,5.37-.61,2.83-1.1,4.46-3.93,4.11-6.95-.15-1.95-1.66-3.47-2.68-5.12-.17-1.86.03-3.61,1-5.21,2.72-3.95,4.72-8.26,7.36-12.21,2.44-3.93,4.29-8.21,7.63-11.53,3.05-2.71,6.56-5.24,10.69-5.65,1.39-.4,2.77-.7,4.21-.68,1.28.6,2.94.2,4.08,1.02,3.81.56,7.27,3.5,9.48,6.58,2.24,4.13,3.47,8.88,2.37,13.55-.28,4.44-2.91,8.2-4.01,12.53-2.21,5.8-3.87,11.86-6.66,17.62-1.08,2.69-4.04,2.55-6.25,3.61-2.01,1.14-3.83,4.04-3.15,6.31-.13,1.26.73,2.36,1.14,3.47,1.04,3.06-1.61,5.61-2.51,8.36-.95,2.35-2.16,4.84-3.09,7.25-.92,1.94-1.13,4.2-2.68,5.71-2.04,2.21-5.28.63-7.62,2.08-2.03,1.45-3.42,4.18-2.83,6.66.41,1.97,1.83,3.48,2.87,5.1.11,2.03,0,4-1.31,5.65-3.1,5.73-6.27,11.35-9.29,17.15-1.08,2.2-2.16,4.41-3.17,6.65-.81,1.56-1.91,3.02-2.34,4.74-2.65,5.04-8.22.95-10.56,7.07-.93,2.5-.04,4.9,1.48,6.98,1.37.84,2.75,1.8,3.45,3.28-.1,3.15.21,6.4-.13,9.52-1.07,3.96-1.58,8.1-3.19,11.7-.13,1.23-.93,2.32-.69,3.65-.26,1.04-.49,2.1-.67,3.1-.5,1.33-.46,2.79-1.23,3.99-.42,1.39-.62,2.76-1.12,4.08-2.19,5.81-3.72,12.15-5.39,18.11-.39.36-.27,1.14-.29,1.61-.45,0-.27.82-.33.99-.21,1.03-.71,2.03-.67,3.1-.43,2.13-.72,4.17-1.34,6.24-1.98,9.45-4.83,18.9-8.03,28.31-1.73,5.72-4,11.8-6.01,17.28-1.4,5.22-3.6,10.11-5.69,15.12-4.07,8.38-9.96,15.78-13.57,24.38-1.96,4.16-2.85,8.75-3.48,13.19-.38,1.53-.44,3.15-.82,4.73-.24,1.59-.88,3.12-.85,4.76-.73,1.81-1.16,3.78-1.34,5.68-.84,2.52-1.15,5.17-1.67,7.79-1.7,6.32-1.75,12.89-1.67,19.62-.15,4.91,5.2,13.79.33,14.51-11.73,1.71-140.17.64-156.93,1.48-.75.04-1.33-.62-1.25-1.37.12-1.08.13-2.19.58-3.17.25-3.31,1.11-6.46,1.18-9.83.57-.95-.02-2.24.38-3.25.51-2.31.58-4.74.53-7.17.01-5,.78-10.04,0-15.02,0-3,0-6.02,0-9.01-.97-2.54-.6-5.45-1.34-8.06.13-3.12-1.56-5.81-2.41-8.7-1.48-1.67-3.44-2.82-4.8-4.61-.93-1.55-2.58-2.7-3.77-4.08-.96-1.1-1.82-2.34-2.94-3.32-.77-1.8-2.46-3.13-3.45-4.84-.56-.91-1.07-1.83-1.76-2.66-.7-1.08-1.12-2.27-1.84-3.31-.71-.66-.9-1.49-1.47-2.21-1.01-.83-1.31-2.11-2.07-3.12-1.58-2.17-2.79-4.55-4.64-6.56-2.5-4.25-5.68-7.96-8.78-11.77-1.89-2.23-3.73-4.54-5.85-6.6-1.46-2.45-3.47-4.61-5.54-6.71-1.41-2.33-3.43-4.29-5.44-6.1-2.04-2.41-4.74-3.97-7.01-6.08-1.34-1.17-2.09-2.5-1.78-4.32.21-2.08,2.13-2.59,3.81-3.06,4.3.73,7.51-3.77,6.56-7.65-1.39-6.05-9.32-6.63-11.69-1-.3,3.13-4.75,4.53-6.96,2.47-1.43-1.17-1.71-3.17-2.81-4.54-1.37-1.93-1.86-4.29-3.5-6-.56-1.12-1.04-2.23-1.68-3.31-1.09-.92-1.68-2.29-2.2-3.58-1.38-1.22-2.19-2.89-3.2-4.4-.8-1.18-1.91-2.15-2.41-3.52-1-1.27-1.42-2.76-2.02-4.22-1.63-1.67-2.03-4.13-3.69-5.77-3.61-4.29-6.58-9.14-10.63-13.14-1.55-1.97-3.16-3.85-4.32-6.07-.99-5.09,4.15-6.91,0-12.31-1.63-2.04-4.63-2.33-6.98-1.48-2.01,1.05-4.54,1.46-6.27-.32-2.78-2.64-4.82-5.98-6.93-9.05-2.37-2.9-3.99-6.39-6.29-9.36-.75-1.19-1.34-2.55-2.42-3.55-.58-.89-.93-1.99-1.7-2.76-1.66-1.91-3.16-3.9-3.92-6.34-.46-2.09-.65-4.3-1.64-6.28-.5-2.15-.83-4.3-.7-6.56-.16-3.27-1.01-6.71.82-9.7,1.66-2.94,3.31-5.9,5.65-8.36.76-1.26,1.93-2.22,2.9-3.33.78-1.17,1.56-2.42,2.51-3.5.91-.83,1.92-1.58,3.14-1.83,1.03-.82,2.27-1.74,3.64-1.99,1.56-.96,3.27-2.23,5.19-2.28,1.1-.8,2.92.02,4.17-.68,2.12.44,4.34.36,6.54.34,2.92-.17,5.52,1.19,8.39,1.36,1.16.56,2.48,1.17,3.74,1.72.84.98,2.06,1.38,3.12,2,1.45.67,2.58,1.96,3.82,2.99,1.08.9,2.4,1.64,3.37,2.74,2.86,2.27,5.61,4.59,8.16,7.25,1.16,1.39,2.87,2.49,3.73,4.1,1.11,1.38,1.64,3.21,3,4.42.49,2.08,2.55,3.68,2.35,5.9.54,2.46-1.69,3.86-3.15,5.44-2.99,4.18.05,10.89,5.55,10.19,1.42.09,2.48-1.43,3.89-1.35,1.08-.69,2.38-.01,3.48.34,1.27.8,1.86,2.13,2.47,3.41,1.11,1.31,1.87,2.96,2.28,4.68,1.29,3.46,2.82,6.9,5.01,9.82.7,1.07.75,2.36,1.94,2.98,2.82,2.5,6.04,4.55,9.16,6.65,3.38,2.33,6.86,4.38,10.72,5.59,4.86.47,5.59,3.9,3.98,7.81-.65,3.22,1.77,6.58,4.91,7.39,2.23,1.12,4.06,2.99,6.81,2.49,1.36-.6,2.94-.24,4.39-.35,1.42-.25,2.66-1.16,4.02-1.34,2.38-.77,5.13.05,7.43-1.09,2.96-1.98,6.06-3.63,9.2-5.31,1.64-1.43,2.45-3.47,3.23-5.44,2.74-5.22,2.74-6.89,2.68-12.7-.34-1.43-.27-2.97-.33-4.45-.33-1.26-.81-2.37-.67-3.71-.05-1.4-.89-2.75-1.02-4.13-.46-.82-.1-1.91-.65-2.66-1.05-3.82-1.31-7.85-2.32-11.75.08-1.48-.26-2.88-.69-4.27.12-1.48-.11-2.9-.67-4.27-.7-3.71-1.13-7.56-1-11.45-.28-3.68-.43-7.41-.33-11.17-.09-3.37.36-6.64.42-10.01.74-2.27,3.03-2.79,4.57-4.29,3.47-3.41,1.43-10.77-3.77-10.7-2.93-.16-5.05-2.01-5.57-4.93-.62-2.25-1.12-4.79-1.97-7.06-1.44-6.12-3.29-12.33-5.35-18.3-.9-3.56-2.2-7.01-3.45-10.49-1.25-3.36-4.44-8.24-2.24-11.59.81-.95,2.1-1.38,3.1-2.14,1.29-1.38,1.79-3.1,2.11-4.88-1.59-9.86-9.74-3.56-10.58-10.09-.5-1.57-.24-3.3-.4-4.95-.54-.74-.15-1.84-.28-2.7-.47-1.01-.29-2.24-.32-3.32.19-1.3-.45-2.55-.33-3.85-.21-1.41-.35-2.9-.67-4.27.12-2.77-.81-5.38-1-8.12-.36-2.46-1.4-4.81-1.34-7.37-.42-2.65,1.35-4.39,3.81-5.11,3.43-2.32,3.83-6.98,1.34-10.03-.94-.8-2.06-1.66-3.27-1.75-1.56,0-3.36-.07-4.53-1.16-2.19-1.67-1.98-4.55-2.03-7.08-.55-1.18-.26-2.58-.35-3.84-.77-1.91.02-4.14-.46-6.1-.56-3.06.21-6.36-.53-9.43-.19-2.65.45-5.16.33-7.79-.08-1.97,1.15-3.86,1.34-5.72.72-1.92,1.79-3.86,2.75-5.76,2.23-3.14,5.38-5.27,8.76-6.95,2.71-1.06,5.45-1.46,8.19-2.06,1.04.14,2.13.46,3.24.36.58.59,1.5.01,2,.66,2.87.35,5.83,1.86,7.89,3.94,1.49,1.63,3.35,3.02,4.38,4.99,3.52,5.99,4.32,12.71,5.95,19.28,1.01,3.63,1.51,7.49,2.34,11.15.94,8.05-5.73,3.79-7.36,10.73-.58,3.03,1.02,6.22,3.92,7.43,1.3.21,2.52.33,3.78.07,1.58.24,3.1.82,4,2.31.68,1.86.95,3.85,1,5.82.48.58.3,1.42.33,2.11.43,1.19.56,2.42.83,3.64,1.89,6.71,4.18,13.07,6.89,19.51,1.66,4.45-2.1,5.09-4.91,6.96-2.76,3.05-2.53,7.99,1.11,10.4,1.74,1.08,3.88.83,5.74.41,5.4-.52,5.23,5.1,6.4,8.81,1.42,5.58,2.52,11.41,4.2,16.96,1.13,3.08,1.23,6.16,2.49,9.23.83,2.21,1.18,4.46,1.88,6.65.64,2.07,1.46,4.11,1.21,6.33-.1,3.55-4.6,2.8-5.75,7.37-1.04,4.12,2.43,8.73,6.95,7.99,2.25-.28,3.49-2.42,5.43-3.25,2.52-1.12,4.82.22,7.37.54,2.84-1.03,5.21,1.7,7.72,2.62,5.49,1.27,9.37-4.83,6.83-9.4-1.62-3.59-5.27-2.41-7.32-4.9-1.64-1.47-.62-3.92-.98-5.85-.49-.78-.2-1.86-.27-2.74.08-.71-.46-1.43-.33-2.16.12-2.63-.1-5.23-.33-7.79.05-2.24-.54-4.39-.42-6.65-.17-1.06-.34-2.17-.25-3.29.01-.73-.52-1.32-.33-2.11-.04-1.06.17-2.26-.33-3.24-.02-.87.13-1.89-.33-2.68,0-2.62,0-5.27,0-7.89-.02-4.39,5.66-2.95,7.64-5.69,2.74-3.1,1.8-8.25-1.93-10.19-3.18-.92-5.61-1.63-5.04-5.6-.17-1.11.43-2.19.33-3.28-.14-.54.47-1,.33-1.55.06-2.17.78-4.25,1-6.38.27-1.04.38-2.16.38-3.27.56-.75.09-1.87.43-2.7.36-1.19.61-2.51.53-3.78.24-.86.43-1.79.33-2.72.25-.86.43-1.79.33-2.72.2-1.05.46-2.15.33-3.28.5-.98.3-2.18.33-3.24.32-1.03.34-2.17.4-3.26.64-1.88.1-4.12.27-6.12.58-2.4.78-5.04.67-7.65.82-6.61,8.46-.67,10.03-10.06-.88-9.05-9.3-3.56-7.02-13.59.92-1.58.26-3.74,1.34-5.2.4-2.65.53-5.41,1.34-7.98-.17-3.71.14-7.35,1.34-10.75,1.83-6.01,6.14-11.24,11.46-14.53,2.37-1.21,4.95-2.04,7.51-2.44,1.74-.16,3.66-.71,5.41-.13Z"/>
</svg>